<svg style="position: absolute; width: 0; height: 0; overflow: hidden;" version="1.1" xmlns="http://www.w3.org/2000/svg" xmlns:xlink="http://www.w3.org/1999/xlink">
<defs>
<symbol id="icon-bem" viewBox="0 0 32 32">
<title>bem</title>
<path fill="#010101" style="fill: var(--color1, #010101)" d="M18.292 25.727h13.604v3.918h-13.604v-3.918z"></path>
<path fill="#f7b334" style="fill: var(--color2, #f7b334)" d="M16.259 25.727v-7.118h-6.392v7.118h6.392z"></path>
<path fill="#010101" style="fill: var(--color1, #010101)" d="M13.506 10.021h-5.245l-3.999-7.771h-4.229v23.477h9.867v-7.118h8.359v-3.853c0-2.678-1.934-4.735-4.753-4.735zM15.079 16.389h-1.442l-1.639-0.359v-0.359h3.081v0.718z"></path>
</symbol>
<symbol id="icon-css" viewBox="0 0 32 32">
<title>css</title>
<path fill="#2062af" style="fill: var(--color3, #2062af)" d="M24.093 27.774l-8.093 2.179-8.093-2.179-1.868-20.232h19.921l-1.868 20.232z"></path>
<path fill="#3c9cd7" style="fill: var(--color4, #3c9cd7)" d="M16 9.18v19.035l0.018 0.005 6.549-1.764 1.512-17.276h-8.079z"></path>
<path fill="#000" style="fill: var(--color5, #000)" d="M11.407 4.569v-1.204h1.757v-1.318h-3.075v3.724h3.075v-1.202h-1.757zM16.324 3.365h1.228v-1.318h-3.075v1.318c0.411 0.411 0.626 0.608 1.221 1.203-0.348 0-1.221 0.001-1.221 0.001v1.202h3.075v-1.202l-1.228-1.204zM20.683 3.365h1.228v-1.318h-3.075v1.318c0.411 0.411 0.626 0.608 1.221 1.203-0.348 0-1.221 0.001-1.221 0.001v1.202h3.075v-1.202l-1.228-1.204z"></path>
<path fill="#fff" style="fill: var(--color6, #fff)" d="M15.993 14.239l-5.792 2.412 0.192 2.388 11.558-4.941 0.247-2.443-6.204 2.584z"></path>
<path fill="#000" style="fill: var(--color5, #000)" d="M10.2 16.652l0.192 2.388 5.6-2.395v-2.406l-5.792 2.412z"></path>
<path fill="#000" style="fill: var(--color5, #000)" d="M22.197 11.655l-6.204 2.584v2.406l5.957-2.547 0.247-2.443z"></path>
<path fill="#000" style="fill: var(--color5, #000)" d="M10.209 16.652l0.192 2.388 8.593 0.027-0.192 3.185-2.828 0.796-2.718-0.686-0.165-1.977h-2.526l0.329 3.816 5.106 1.51 5.079-1.482 0.659-7.577h-11.53z"></path>
<path fill="#000" opacity="0.05" style="fill: var(--color5, #000)" d="M15.993 16.652h-5.792l0.192 2.388 5.6 0.018v-2.406zM15.993 23.040l-0.027 0.008-2.718-0.686-0.165-1.977h-2.526l0.329 3.816 5.106 1.51v-2.671z"></path>
<path fill="#000" style="fill: var(--color5, #000)" d="M9.679 11.655h12.518l-0.247 2.443h-11.969l-0.302-2.443z"></path>
<path fill="#000" opacity="0.05" style="fill: var(--color5, #000)" d="M15.993 11.655h-6.314l0.302 2.443h6.012v-2.443z"></path>
</symbol>
<symbol id="icon-html" viewBox="0 0 23 32">
<title>html</title>
<path fill="#e44d26" style="fill: var(--color7, #e44d26)" d="M2.062 29.43l-2.063-23.141h22.671l-2.065 23.137-9.284 2.574z"></path>
<path fill="#f16529" style="fill: var(--color8, #f16529)" d="M11.334 30.033l7.502-2.080 1.765-19.772h-9.267z"></path>
<path fill="#ebebeb" style="fill: var(--color9, #ebebeb)" d="M11.334 16.764h-3.756l-0.259-2.906h4.015v-2.838h-7.117l0.068 0.761 0.698 7.821h6.351zM11.334 24.134l-0.012 0.003-3.161-0.854-0.202-2.263h-2.849l0.398 4.456 5.814 1.614 0.013-0.004z"></path>
<path fill="#000" style="fill: var(--color5, #000)" d="M2.108 0h1.442v1.425h1.319v-1.425h1.442v4.315h-1.442v-1.445h-1.319v1.445h-1.442l-0-4.315zM8.209 1.431h-1.27v-1.431h3.982v1.431h-1.27v2.884h-1.443v-2.884h-0zM11.554 0h1.504l0.925 1.516 0.924-1.516h1.505v4.315h-1.437v-2.139l-0.992 1.534h-0.025l-0.993-1.534v2.139h-1.411v-4.315zM17.129 0h1.443v2.889h2.028v1.426h-3.471v-4.315z"></path>
<path fill="#fff" style="fill: var(--color6, #fff)" d="M11.325 16.764v2.838h3.495l-0.329 3.681-3.165 0.854v2.953l5.818-1.612 0.043-0.48 0.667-7.472 0.069-0.762h-0.765zM11.325 11.019v2.838h6.856l0.057-0.638 0.129-1.439 0.068-0.761z"></path>
</symbol>
<symbol id="icon-javascript" viewBox="0 0 32 32">
<title>javascript</title>
<path fill="#f0db4f" style="fill: var(--color10, #f0db4f)" d="M0 0h32v32h-32z"></path>
<path fill="#323330" style="fill: var(--color11, #323330)" d="M29.381 24.368c-0.234-1.46-1.186-2.686-4.006-3.83-0.979-0.45-2.071-0.773-2.397-1.515-0.116-0.432-0.131-0.675-0.058-0.937 0.21-0.849 1.223-1.113 2.026-0.87 0.517 0.173 1.007 0.572 1.302 1.208 1.381-0.894 1.378-0.888 2.342-1.503-0.353-0.548-0.541-0.8-0.773-1.034-0.83-0.928-1.962-1.405-3.772-1.369-0.313 0.040-0.63 0.082-0.943 0.122-0.903 0.228-1.764 0.703-2.269 1.338-1.515 1.719-1.083 4.727 0.76 5.965 1.816 1.363 4.484 1.673 4.824 2.948 0.332 1.56-1.147 2.065-2.616 1.886-1.083-0.225-1.685-0.776-2.336-1.776-1.198 0.694-1.198 0.694-2.43 1.402 0.292 0.639 0.599 0.928 1.089 1.481 2.318 2.351 8.119 2.236 9.159-1.323 0.043-0.122 0.322-0.937 0.097-2.193zM17.396 14.707h-2.993c0 2.586-0.012 5.153-0.012 7.738 0 1.646 0.085 3.154-0.182 3.617-0.438 0.909-1.573 0.797-2.090 0.62-0.526-0.259-0.794-0.627-1.104-1.147-0.085-0.149-0.149-0.265-0.17-0.274-0.812 0.496-1.621 0.995-2.433 1.491 0.405 0.83 1.001 1.551 1.764 2.020 1.141 0.684 2.674 0.894 4.277 0.526 1.043-0.304 1.944-0.934 2.415-1.892 0.681-1.256 0.535-2.777 0.529-4.459 0.015-2.744 0-5.487 0-8.24z"></path>
</symbol>
<symbol id="icon-react" viewBox="0 0 32 32">
<title>react</title>
<path fill="#61dafb" style="fill: var(--color12, #61dafb)" d="M25.323 15.962c0-1.235-1.547-2.406-3.918-3.132 0.547-2.417 0.304-4.34-0.768-4.956-0.247-0.144-0.536-0.213-0.851-0.213v0.848c0.175 0 0.315 0.034 0.433 0.099 0.517 0.296 0.741 1.425 0.566 2.877-0.042 0.357-0.11 0.733-0.194 1.117-0.745-0.182-1.558-0.323-2.413-0.414-0.513-0.703-1.045-1.342-1.581-1.9 1.239-1.152 2.402-1.782 3.192-1.782v-0.848c-1.045 0-2.413 0.745-3.797 2.037-1.383-1.285-2.752-2.022-3.797-2.022v0.848c0.787 0 1.953 0.627 3.192 1.771-0.532 0.559-1.064 1.193-1.57 1.896-0.859 0.091-1.672 0.232-2.417 0.418-0.087-0.38-0.152-0.749-0.198-1.102-0.179-1.452 0.042-2.581 0.555-2.881 0.114-0.068 0.262-0.099 0.437-0.099v-0.848c-0.319 0-0.608 0.068-0.859 0.213-1.068 0.616-1.307 2.535-0.756 4.944-2.364 0.73-3.903 1.896-3.903 3.128 0 1.235 1.547 2.406 3.918 3.132-0.547 2.417-0.304 4.34 0.768 4.956 0.247 0.144 0.536 0.213 0.855 0.213 1.045 0 2.413-0.745 3.797-2.037 1.383 1.285 2.752 2.022 3.797 2.022 0.319 0 0.608-0.068 0.859-0.213 1.068-0.616 1.307-2.535 0.756-4.944 2.356-0.726 3.896-1.896 3.896-3.128zM20.374 13.427c-0.141 0.49-0.315 0.996-0.513 1.501-0.156-0.304-0.319-0.608-0.498-0.912-0.175-0.304-0.361-0.6-0.547-0.889 0.54 0.080 1.060 0.179 1.558 0.3zM18.634 17.475c-0.296 0.513-0.6 1-0.916 1.452-0.566 0.049-1.14 0.076-1.718 0.076-0.574 0-1.148-0.027-1.71-0.072-0.315-0.452-0.623-0.935-0.92-1.444-0.289-0.498-0.551-1.003-0.79-1.513 0.236-0.509 0.502-1.019 0.787-1.516 0.296-0.513 0.6-1 0.916-1.452 0.566-0.049 1.14-0.076 1.718-0.076 0.574 0 1.148 0.027 1.71 0.072 0.315 0.452 0.623 0.935 0.92 1.444 0.289 0.498 0.551 1.003 0.791 1.513-0.239 0.509-0.502 1.019-0.787 1.516zM19.861 16.981c0.205 0.509 0.38 1.019 0.524 1.513-0.498 0.122-1.022 0.224-1.566 0.304 0.186-0.293 0.372-0.593 0.547-0.901 0.175-0.304 0.338-0.612 0.494-0.916zM16.008 21.036c-0.353-0.365-0.707-0.771-1.057-1.216 0.342 0.015 0.692 0.027 1.045 0.027 0.357 0 0.711-0.008 1.057-0.027-0.342 0.445-0.695 0.851-1.045 1.216zM13.18 18.797c-0.54-0.080-1.060-0.179-1.558-0.3 0.141-0.49 0.315-0.996 0.513-1.501 0.156 0.304 0.319 0.608 0.498 0.912s0.361 0.6 0.547 0.889zM15.989 10.888c0.353 0.365 0.707 0.771 1.057 1.216-0.342-0.015-0.692-0.027-1.045-0.027-0.357 0-0.711 0.008-1.057 0.027 0.342-0.445 0.695-0.851 1.045-1.216zM13.176 13.127c-0.186 0.293-0.372 0.593-0.547 0.901-0.175 0.304-0.338 0.608-0.494 0.912-0.205-0.509-0.38-1.019-0.524-1.513 0.498-0.118 1.022-0.22 1.566-0.3zM9.737 17.885c-1.345-0.574-2.216-1.326-2.216-1.923s0.87-1.353 2.216-1.923c0.327-0.141 0.684-0.266 1.053-0.384 0.217 0.745 0.502 1.52 0.855 2.314-0.35 0.791-0.631 1.562-0.844 2.303-0.376-0.118-0.733-0.247-1.064-0.388zM11.781 23.316c-0.517-0.296-0.741-1.425-0.566-2.877 0.042-0.357 0.11-0.733 0.194-1.117 0.745 0.182 1.558 0.323 2.413 0.414 0.513 0.703 1.045 1.342 1.581 1.9-1.239 1.152-2.402 1.782-3.192 1.782-0.171-0.004-0.315-0.038-0.429-0.103zM20.796 20.42c0.179 1.452-0.042 2.581-0.555 2.881-0.114 0.068-0.262 0.099-0.437 0.099-0.787 0-1.953-0.627-3.192-1.771 0.532-0.559 1.064-1.193 1.57-1.896 0.859-0.091 1.672-0.232 2.417-0.418 0.087 0.384 0.156 0.753 0.198 1.106zM22.259 17.885c-0.327 0.141-0.684 0.266-1.053 0.384-0.217-0.745-0.502-1.52-0.855-2.314 0.35-0.79 0.631-1.562 0.844-2.303 0.376 0.118 0.733 0.247 1.068 0.388 1.345 0.574 2.216 1.326 2.216 1.923-0.004 0.597-0.874 1.353-2.219 1.923z"></path>
<path fill="#61dafb" style="fill: var(--color12, #61dafb)" d="M17.733 15.962c0 0.959-0.778 1.737-1.737 1.737s-1.737-0.778-1.737-1.737c0-0.959 0.778-1.737 1.737-1.737s1.737 0.778 1.737 1.737z"></path>
</symbol>
<symbol id="icon-react-router" viewBox="0 0 32 32">
<title>react-router</title>
<path fill="#62dafb" style="fill: var(--color13, #62dafb)" d="M23.79 18.652c-0.603 0.197-1.252 0.257-1.882 0.368-0.172 0.030-0.352 0.003-0.526 0.027-1.344 0.186-1.852 0.725-2.042 2.156-0.101 0.762-0.302 1.486-0.739 2.134-0.739 1.095-2.174 1.592-3.402 1.164-1.315-0.458-2.111-1.656-2.005-3.017 0.096-1.226 1.064-2.309 2.424-2.624 0.637-0.147 1.297-0.205 1.951-0.265 1.219-0.111 1.758-0.645 1.961-1.845 0.117-0.69 0.013-1.341-0.14-1.992-0.234-0.995-0.958-1.457-2.174-1.545-0.663-0.048-1.338-0.145-1.973-0.335-1.337-0.402-2.115-1.562-2.053-2.923 0.054-1.192 1.025-2.352 2.191-2.619 1.381-0.316 2.756 0.237 3.344 1.467 0.308 0.646 0.477 1.377 0.598 2.088 0.216 1.276 0.723 1.77 1.995 1.909 0.823 0.089 1.661 0.191 2.446 0.437 1.192 0.373 1.907 1.483 1.907 2.717-0 1.207-0.739 2.324-1.88 2.697z"></path>
<path fill="#424242" style="fill: var(--color14, #424242)" d="M9.759 18.848c-1.597 0-2.901-1.303-2.902-2.9s1.303-2.901 2.9-2.902c1.597-0 2.901 1.303 2.901 2.9s-1.303 2.901-2.9 2.902zM2.891 24.65c-1.596-0.004-2.895-1.312-2.891-2.911 0.004-1.596 1.312-2.895 2.91-2.891 1.596 0.004 2.895 1.312 2.891 2.91-0.004 1.596-1.312 2.895-2.91 2.891zM29.12 24.65c-1.6 0.009-2.914-1.285-2.923-2.879-0.009-1.6 1.285-2.914 2.879-2.923 1.6-0.009 2.913 1.285 2.923 2.879 0.009 1.6-1.285 2.914-2.879 2.923z"></path>
</symbol>
<symbol id="icon-redux" viewBox="0 0 32 32">
<title>redux</title>
<path fill="#764abc" style="fill: var(--color15, #764abc)" d="M22.173 21.967c1.181-0.122 2.077-1.14 2.036-2.362s-1.059-2.199-2.28-2.199h-0.081c-1.262 0.041-2.24 1.099-2.199 2.362 0.041 0.611 0.285 1.14 0.651 1.507-1.384 2.729-3.502 4.724-6.678 6.393-2.158 1.14-4.398 1.547-6.638 1.262-1.833-0.244-3.258-1.059-4.154-2.403-1.303-1.995-1.425-4.154-0.326-6.312 0.774-1.547 1.995-2.688 2.769-3.258-0.163-0.529-0.407-1.425-0.529-2.077-5.905 4.276-5.294 10.058-3.502 12.787 1.344 2.036 4.072 3.299 7.085 3.299 0.814 0 1.629-0.081 2.443-0.285 5.212-1.018 9.162-4.113 11.402-8.715zM29.34 16.917c-3.095-3.624-7.656-5.62-12.868-5.62h-0.652c-0.367-0.733-1.14-1.222-1.995-1.222h-0.082c-1.262 0.041-2.239 1.099-2.199 2.362 0.041 1.222 1.059 2.199 2.28 2.199h0.081c0.896-0.041 1.67-0.611 1.995-1.385h0.733c3.095 0 6.027 0.896 8.674 2.647 2.036 1.344 3.502 3.095 4.316 5.213 0.692 1.71 0.651 3.38-0.081 4.805-1.14 2.158-3.054 3.339-5.579 3.339-1.629 0-3.176-0.489-3.991-0.855-0.448 0.407-1.262 1.059-1.832 1.466 1.751 0.814 3.543 1.262 5.253 1.262 3.909 0 6.8-2.158 7.9-4.317 1.181-2.362 1.099-6.434-1.955-9.896zM8.653 22.659c0.041 1.222 1.059 2.199 2.28 2.199h0.082c1.262-0.041 2.24-1.099 2.199-2.362-0.041-1.222-1.059-2.199-2.28-2.199h-0.081c-0.082 0-0.204 0-0.285 0.041-1.67-2.769-2.362-5.782-2.117-9.040 0.163-2.443 0.977-4.561 2.402-6.312 1.181-1.507 3.461-2.24 5.009-2.28 4.316-0.082 6.149 5.294 6.271 7.452 0.529 0.122 1.425 0.407 2.036 0.611-0.489-6.597-4.561-10.018-8.47-10.018-3.665 0-7.045 2.647-8.389 6.556-1.873 5.213-0.652 10.221 1.629 14.172-0.204 0.285-0.326 0.733-0.285 1.181z"></path>
</symbol>
<symbol id="icon-webpack" viewBox="0 0 32 32">
<title>webpack</title>
<path fill="#fff" style="fill: var(--color6, #fff)" d="M16 0l14.141 8v16l-14.141 8-14.141-8v-16z"></path>
<path fill="#8ed6fb" style="fill: var(--color16, #8ed6fb)" d="M27.616 23.448l-11.149 6.307v-4.912l6.947-3.821 4.203 2.427zM28.379 22.757v-13.189l-4.080 2.355v8.477l4.080 2.357zM4.339 23.448l11.149 6.307v-4.912l-6.947-3.821-4.203 2.427zM3.576 22.757v-13.189l4.080 2.355v8.477l-4.080 2.357zM4.053 8.715l11.435-6.469v4.749l-7.381 4.061-4.053-2.341zM27.901 8.715l-11.435-6.469v4.749l7.381 4.061 4.053-2.341z"></path>
<path fill="#1c78c0" style="fill: var(--color17, #1c78c0)" d="M15.488 23.725l-6.853-3.768v-7.467l6.853 3.957v7.277zM16.467 23.725l6.853-3.768v-7.467l-6.853 3.957v7.277zM9.099 11.627l6.88-3.784 6.88 3.784-6.88 3.973-6.88-3.973z"></path>
</symbol>
</defs>
</svg>
